<svg width="887" height="348" viewBox="0 0 887 348" fill="none" xmlns="http://www.w3.org/2000/svg">
<g id="variant-26">
<path id="j / Maxi Sharp 323 / stem" d="M15.229 348.059V116.522V87.688H45.264V348.059Z" fill="black"/>
<path id="j / Maxi Sharp 323 / tittle" d="M30.247 51.209Q19.633 51.209 12.195 43.657Q4.756 36.104 4.756 25.490Q4.756 14.876 12.195 7.438Q19.633 0.000 30.247 0.000Q40.860 0.000 48.413 7.438Q55.966 14.876 55.966 25.490Q55.966 36.104 48.413 43.657Q40.860 51.209 30.247 51.209Z" fill="black"/>
<path id="u / Hellix 480" d="M222.481 258.789V88.551H253.330V258.789ZM127.009 88.551V181.690Q127.009 196.924 132.777 208.235Q138.545 219.547 148.881 225.694Q159.217 231.842 172.910 231.842Q188.365 231.842 201.934 224.104Q215.502 216.365 222.830 203.515V232.919Q214.760 246.389 199.361 254.335Q183.962 262.281 165.996 262.281Q144.818 262.281 129.177 252.956Q113.536 243.630 104.848 226.365Q96.160 209.101 96.160 186.155V88.551Z" fill="black"/>
<path id="k / National 2 mod w=30.76 / first" d="M445.973 86.7L383.237 166.234L438.384 244.273L442.831 246.997C449.15 250.866 456.047 252.645 460.561 251.569L465.114 253.331V258.74H436.356C427.933 258.74 417.271 255.141 407.625 249.04L348.821 169.44H334.676V258.74H303.912V0.17H310.774C323.975 0.17 334.676 10.871 334.676 24.072V165.254H349.501L382.67 122.958L411.002 86.7H445.973Z" fill="black"/>
<path id="k / National 2 mod w=30.76 / second" d="M608.05 86.785L545.142 166.537L613.34 258.825H589.169C581.585 258.825 574.45 255.226 569.942 249.125L510.898 169.2H496.753V258.825H465.989V0.255H472.851C486.052 0.255 496.753 10.956 496.753 24.157V165.339H511.578L544.747 123.043L573.079 86.785H608.05Z" fill="black"/>
<path id="a / Hellix 480" d="M791.570 88.551V258.789H760.722V88.551ZM761.071 144.030Q756.636 135.244 748.435 128.531Q740.233 121.818 730.091 118.009Q719.950 114.201 709.129 114.201Q692.338 114.201 678.964 121.909Q665.590 129.618 657.779 143.022Q649.968 156.427 649.968 173.567Q649.968 190.564 657.779 204.040Q665.590 217.517 678.964 225.328Q692.338 233.139 709.129 233.139Q719.950 233.139 729.989 229.330Q740.028 225.522 748.332 218.809Q756.636 212.096 761.071 203.659V233.124Q756.553 241.256 747.415 247.918Q738.278 254.581 726.840 258.431Q715.402 262.281 703.224 262.281Q679.668 262.281 660.700 250.470Q641.733 238.659 630.715 218.540Q619.696 198.420 619.696 173.567Q619.696 154.856 626.042 138.721Q632.388 122.587 643.756 110.601Q655.124 98.616 670.323 91.837Q685.521 85.059 703.224 85.059Q715.607 85.059 727.148 88.909Q738.688 92.758 747.723 99.421Q756.758 106.084 761.071 114.421Z" fill="black"/>
<path id="i / Maxi Sharp 323 / stem" d="M841.053 258.789V229.897V116.580V87.688H871.775V229.897V258.789Z" fill="black"/>
<path id="i / Maxi Sharp 323 / tittle" d="M856.529 51.549Q845.915 51.549 838.477 43.997Q831.038 36.444 831.038 25.830Q831.038 15.216 838.477 7.778Q845.915 0.340 856.529 0.340Q867.142 0.340 874.695 7.778Q882.248 15.216 882.248 25.830Q882.248 36.444 874.695 43.997Q867.142 51.549 856.529 51.549Z" fill="black"/>
</g>
</svg>
