<svg width="887" height="348" viewBox="0 0 887 348" fill="none" xmlns="http://www.w3.org/2000/svg">
<g id="study-thin-17">
<path id="j / Maxi Sharp 361 / stem" d="M13.427 348.059V119.915V87.688H46.996V348.059Z" fill="black"/>
<path id="j / Maxi Sharp 361 / tittle" d="M30.211 54.389Q18.961 54.389 11.064 46.342Q3.166 38.295 3.166 27.045Q3.166 15.795 11.064 7.898Q18.961 0.000 30.211 0.000Q41.461 0.000 49.508 7.898Q57.556 15.795 57.556 27.045Q57.556 38.295 49.508 46.342Q41.461 54.389 30.211 54.389Z" fill="black"/>
<path id="u / Hellix 533" d="M219.715 258.789V88.296H254.175V258.789ZM129.775 88.296V180.579Q129.775 195.118 135.207 205.863Q140.640 216.607 150.420 222.396Q160.201 228.185 173.176 228.185Q187.636 228.185 200.383 220.886Q213.129 213.587 220.064 201.478V233.868Q212.156 246.921 197.312 254.601Q182.469 262.281 165.151 262.281Q143.881 262.281 128.252 252.944Q112.622 243.607 103.969 226.261Q95.315 208.916 95.315 185.762V88.296Z" fill="black"/>
<path id="k / National 2 mod w=34.51 / first" d="M448.074 86.7L385.332 166.243L439.228 242.513L443.137 245.569C448.689 249.909 455.534 251.904 460.731 250.697L465.062 252.673V258.74H432.413C423.357 258.74 413.049 254.703 404.634 247.86L350.235 174.224H336.547V258.74H302.041V0.17H309.738C324.545 0.17 336.547 12.172 336.547 26.979V160.777H350.915L381.371 121.941L408.908 86.7H448.074Z" fill="black"/>
<path id="k / National 2 mod w=34.51 / second" d="M610.151 86.785L547.296 166.471L615.543 258.825H588.432C579.926 258.825 571.923 254.788 566.868 247.945L512.312 174.096H498.624V258.825H464.118V0.255H471.815C486.622 0.255 498.624 12.257 498.624 27.064V160.862H512.992L543.448 122.026L570.985 86.785H610.151Z" fill="black"/>
<path id="a / Hellix 533" d="M792.334 88.296V258.789H757.875V88.296ZM758.224 145.789Q753.974 137.443 746.166 131.054Q738.358 124.665 728.691 121.030Q719.024 117.395 708.597 117.395Q692.754 117.395 680.121 124.687Q667.488 131.979 660.105 144.619Q652.723 157.260 652.723 173.452Q652.723 189.476 660.105 202.200Q667.488 214.925 680.121 222.307Q692.754 229.690 708.597 229.690Q719.024 229.690 728.600 226.055Q738.176 222.421 746.075 216.031Q753.974 209.642 758.224 201.645V234.050Q753.822 241.973 744.927 248.416Q736.033 254.859 724.861 258.570Q713.689 262.281 701.743 262.281Q678.441 262.281 659.624 250.424Q640.808 238.566 629.870 218.412Q618.932 198.258 618.932 173.452Q618.932 154.763 625.232 138.617Q631.532 122.471 642.819 110.439Q654.106 98.408 669.165 91.606Q684.225 84.804 701.743 84.804Q713.871 84.804 725.134 88.515Q736.397 92.226 745.200 98.669Q754.004 105.112 758.224 113.217Z" fill="black"/>
<path id="i / Maxi Sharp 361 / stem" d="M839.110 258.789V226.717V119.760V87.688H873.577V226.717V258.789Z" fill="black"/>
<path id="i / Maxi Sharp 361 / tittle" d="M856.493 54.729Q845.243 54.729 837.346 46.682Q829.448 38.635 829.448 27.385Q829.448 16.135 837.346 8.238Q845.243 0.340 856.493 0.340Q867.743 0.340 875.790 8.238Q883.838 16.135 883.838 27.385Q883.838 38.635 875.790 46.682Q867.743 54.729 856.493 54.729Z" fill="black"/>
</g>
</svg>
