<svg width="887" height="348" viewBox="0 0 887 348" fill="none" xmlns="http://www.w3.org/2000/svg">
<g id="recomposition-baseline-2026-07-13">
<path id="j / Maxi Sharp 455 / stem" d="M9.906 348.059V126.738V87.688H50.512V348.059Z" fill="black"/>
<path id="j / Maxi Sharp 455 / tittle" d="M30.209 60.722Q17.693 60.722 8.846 51.724Q-0.000 42.726 -0.000 30.209Q-0.000 17.693 8.846 8.846Q17.693 0.000 30.209 0.000Q42.726 0.000 51.724 8.846Q60.722 17.693 60.722 30.209Q60.722 42.726 51.724 51.724Q42.726 60.722 30.209 60.722Z" fill="black"/>
<path id="u / Hellix 625" d="M214.265 258.789V87.794H255.839V258.789ZM135.225 87.794V178.390Q135.225 191.561 139.996 201.188Q144.767 210.815 153.453 215.897Q162.139 220.979 173.700 220.979Q186.200 220.979 197.327 214.547Q208.455 208.114 214.614 197.464V235.738Q207.025 247.970 193.276 255.125Q179.527 262.281 163.487 262.281Q142.034 262.281 126.427 252.921Q110.821 243.561 102.236 226.056Q93.651 208.551 93.651 184.987V87.794Z" fill="black"/>
<path id="k / National 2 mod w=41.57 / first" d="M452.043 86.7L389.287 166.26L440.823 239.19L443.713 242.871C447.819 248.1 454.565 250.504 461.053 249.05L464.963 251.43V258.74H424.964C414.715 258.74 405.074 253.876 398.984 245.632L352.907 183.26H340.081V258.74H298.507V0.17H307.781C325.62 0.17 340.081 14.631 340.081 32.47V152.32H353.587L378.917 120.02L404.953 86.7H452.043Z" fill="black"/>
<path id="k / National 2 mod w=41.57 / second" d="M614.12 86.785L551.364 166.345L619.704 258.825H587.041C576.792 258.825 567.151 253.961 561.061 245.717L514.984 183.345H502.158V258.825H460.584V0.255H469.858C487.697 0.255 502.158 14.716 502.158 32.555V152.405H515.664L540.994 120.105L567.03 86.785H614.12Z" fill="black"/>
<path id="a / Hellix 625" d="M793.839 87.794V258.789H752.265V87.794ZM752.614 149.256Q748.729 141.776 741.697 136.025Q734.664 130.274 725.932 126.982Q717.200 123.689 707.548 123.689Q693.575 123.689 682.402 130.160Q671.228 136.631 664.689 147.766Q658.150 158.902 658.150 173.224Q658.150 187.333 664.689 198.575Q671.228 209.817 682.402 216.355Q693.575 222.894 707.548 222.894Q717.200 222.894 725.864 219.602Q734.528 216.309 741.629 210.559Q748.729 204.808 752.614 197.677V235.874Q748.440 243.387 740.025 249.397Q731.609 255.406 720.961 258.844Q710.314 262.281 698.824 262.281Q676.024 262.281 657.503 250.332Q638.983 238.384 628.205 218.161Q617.427 197.939 617.427 173.224Q617.427 154.581 623.636 138.412Q629.845 122.243 640.972 110.120Q652.099 97.997 666.885 91.150Q681.671 84.303 698.824 84.303Q710.451 84.303 721.166 87.740Q731.882 91.177 740.229 97.187Q748.577 103.197 752.614 110.846Z" fill="black"/>
<path id="i / Maxi Sharp 455 / stem" d="M835.376 258.789V220.384V126.093V87.688H877.302V220.384V258.789Z" fill="black"/>
<path id="i / Maxi Sharp 455 / tittle" d="M856.491 61.062Q843.975 61.062 835.128 52.064Q826.282 43.066 826.282 30.549Q826.282 18.033 835.128 9.186Q843.975 0.340 856.491 0.340Q869.008 0.340 878.006 9.186Q887.004 18.033 887.004 30.549Q887.004 43.066 878.006 52.064Q869.008 61.062 856.491 61.062Z" fill="black"/>
</g>
</svg>
