<svg width="887" height="348" viewBox="0 0 887 348" fill="none" xmlns="http://www.w3.org/2000/svg">
<g id="Reference / CURRENT / immutable clone">
<path id="j / Maxi Sharp 455 / tittle" d="M30.2094 60.7225C21.8651 60.7225 14.7441 57.723 8.84644 51.7241C2.94881 45.7253 0 38.5537 0 30.2094C0 21.8651 2.94881 14.7441 8.84644 8.84644C14.7441 2.94881 21.8651 0 30.2094 0C38.5537 0 45.7253 2.94881 51.7241 8.84644C57.723 14.7441 60.7225 21.8651 60.7225 30.2094C60.7225 38.5537 57.723 45.7253 51.7241 51.7241C45.7253 57.723 38.5537 60.7225 30.2094 60.7225Z" fill="black"/>
<path id="j / Maxi Sharp 455 / stem" d="M9.40916 347.132V125.809V86.7598H50.9834V347.132H9.40916Z" fill="black"/>
<path id="u / Hellix 625 / bowl" d="M135.225 86.7V178.391C135.225 187.171 136.815 194.77 139.996 201.188C143.177 207.606 147.663 212.509 153.453 215.897C159.244 219.286 165.993 220.98 173.7 220.98C182.033 220.98 189.909 218.836 197.327 214.547C204.745 210.259 210.508 204.565 214.614 197.465V235.738C209.555 243.893 202.442 250.355 193.276 255.126C184.11 259.896 174.18 262.281 163.487 262.281C149.185 262.281 136.832 259.161 126.427 252.921C116.023 246.682 107.959 237.727 102.236 226.056C96.5123 214.386 93.6506 200.696 93.6506 184.987V86.7H135.225Z" fill="black"/>
<path id="u / Hellix 625 / stem" d="M214.265 258.789V86.7H255.839V258.789H214.265Z" fill="black"/>
<path id="k / National 2 / first" d="M452.043 86.7L389.287 166.26L440.823 239.19L443.713 242.871C447.819 248.1 454.565 250.504 461.053 249.05L464.963 251.43V258.74H424.964C414.715 258.74 405.074 253.876 398.984 245.632L352.907 183.26H340.081V258.74H298.507V0.169983H307.781C325.62 0.169983 340.081 14.6312 340.081 32.47V152.32H353.587L378.917 120.02L404.953 86.7H452.043Z" fill="black"/>
<path id="k / National 2 / second" d="M614.12 86.785L551.364 166.345L619.704 258.825H587.041C576.792 258.825 567.151 253.961 561.061 245.717L514.984 183.345H502.158V258.825H460.584V0.255005H469.858C487.697 0.255005 502.158 14.7162 502.158 32.555V152.405H515.664L540.994 120.105L567.03 86.785H614.12Z" fill="black"/>
<path id="a / Hellix 625 / bowl" d="M752.614 149.256C750.025 144.269 746.385 139.859 741.697 136.025C737.008 132.192 731.753 129.177 725.932 126.982C720.11 124.787 713.983 123.689 707.548 123.689C698.233 123.689 689.851 125.846 682.402 130.16C674.953 134.474 669.048 140.343 664.689 147.766C660.33 155.19 658.15 163.676 658.15 173.224C658.15 182.63 660.33 191.08 664.689 198.575C669.048 206.069 674.953 211.996 682.402 216.356C689.851 220.715 698.233 222.895 707.548 222.895C713.983 222.895 720.088 221.797 725.864 219.602C731.64 217.407 736.895 214.393 741.629 210.559C746.363 206.725 750.025 202.431 752.614 197.677V235.874C749.832 240.883 745.635 245.39 740.025 249.397C734.414 253.403 728.06 256.552 720.962 258.844C713.863 261.135 706.484 262.281 698.824 262.281C683.624 262.281 669.85 258.298 657.504 250.333C645.157 242.367 635.391 231.643 628.205 218.162C621.02 204.68 617.427 189.701 617.427 173.224C617.427 160.795 619.497 149.191 623.636 138.412C627.775 127.633 633.554 118.203 640.972 110.12C648.39 102.038 657.028 95.715 666.885 91.1501C676.742 86.5854 687.389 84.303 698.824 84.303C706.575 84.303 714.023 85.4487 721.166 87.7402C728.31 90.0317 734.664 93.1807 740.229 97.1872C745.794 101.194 749.923 105.747 752.614 110.846V149.256Z" fill="black"/>
<path id="a / Hellix 625 / stem" d="M793.839 86.7L793.839 258.789H752.265V86.7H793.839Z" fill="black"/>
<path id="i / Maxi Sharp 455 / tittle" d="M856.491 61.0625C848.147 61.0625 841.026 58.063 835.128 52.0641C829.231 46.0653 826.282 38.8937 826.282 30.5494C826.282 22.2051 829.231 15.0841 835.128 9.18646C841.026 3.28884 848.147 0.340027 856.491 0.340027C864.836 0.340027 872.007 3.28884 878.006 9.18646C884.005 15.0841 887.004 22.2051 887.004 30.5494C887.004 38.8937 884.005 46.0653 878.006 52.0641C872.007 58.063 864.836 61.0625 856.491 61.0625Z" fill="black"/>
<path id="i / Maxi Sharp 455 / stem" d="M836.504 258.91V220.33V126.098V86.7H878.078V220.33V258.91H836.504Z" fill="black"/>
</g>
</svg>
