<svg width="560" height="26" viewBox="0 0 560 26" fill="none" xmlns="http://www.w3.org/2000/svg">
<path d="M7.83503e-05 25.56V0.359996H8.46008C9.73208 0.359996 10.8841 0.635996 11.9161 1.188C12.9481 1.74 13.7641 2.484 14.3641 3.42C14.9881 4.332 15.3001 5.364 15.3001 6.516C15.3001 7.452 15.0961 8.34 14.6881 9.18C14.2801 9.996 13.7281 10.68 13.0321 11.232C12.3361 11.784 11.5561 12.12 10.6921 12.24C11.8201 12.312 12.8281 12.648 13.7161 13.248C14.6281 13.848 15.3481 14.628 15.8761 15.588C16.4041 16.524 16.6681 17.568 16.6681 18.72C16.6681 19.992 16.3561 21.144 15.7321 22.176C15.1081 23.208 14.2561 24.036 13.1761 24.66C12.1201 25.26 10.9201 25.56 9.57608 25.56H7.83503e-05ZM1.58408 24.048H9.50408C10.5841 24.048 11.5321 23.808 12.3481 23.328C13.1881 22.848 13.8481 22.2 14.3281 21.384C14.8081 20.544 15.0481 19.62 15.0481 18.612C15.0481 17.58 14.7961 16.656 14.2921 15.84C13.8121 15.024 13.1521 14.376 12.3121 13.896C11.4961 13.416 10.5601 13.176 9.50408 13.176H1.58408V24.048ZM1.58408 11.7H8.42408C9.40808 11.7 10.2961 11.472 11.0881 11.016C11.9041 10.56 12.5401 9.948 12.9961 9.18C13.4521 8.412 13.6801 7.56 13.6801 6.624C13.6801 5.736 13.4401 4.932 12.9601 4.212C12.5041 3.492 11.8801 2.928 11.0881 2.52C10.2961 2.088 9.40808 1.872 8.42408 1.872H1.58408V11.7ZM23.8704 0.359996H25.8144L33.8784 12.384L41.8704 0.359996H43.7424L34.6704 13.968V25.56H33.0504V13.968L23.8704 0.359996ZM89.5389 19.584C89.0589 20.856 88.2909 21.972 87.2349 22.932C86.1789 23.868 84.9309 24.6 83.4909 25.128C82.0749 25.656 80.5509 25.92 78.9189 25.92C77.0949 25.92 75.4149 25.596 73.8789 24.948C72.3669 24.3 71.0349 23.388 69.8829 22.212C68.7549 21.012 67.8789 19.62 67.2549 18.036C66.6549 16.428 66.3549 14.7 66.3549 12.852C66.3549 11.028 66.6549 9.336 67.2549 7.776C67.8789 6.192 68.7549 4.824 69.8829 3.672C71.0349 2.52 72.3669 1.62 73.8789 0.971997C75.4149 0.323996 77.0949 -3.8147e-06 78.9189 -3.8147e-06C80.0709 -3.8147e-06 81.1749 0.131996 82.2309 0.395995C83.3109 0.659996 84.2949 1.044 85.1829 1.548C86.0949 2.052 86.8869 2.652 87.5589 3.348C88.2549 4.02 88.8069 4.788 89.2149 5.652L87.8469 6.372C87.3429 5.388 86.6469 4.536 85.7589 3.816C84.8709 3.096 83.8389 2.532 82.6629 2.124C81.4869 1.716 80.2389 1.512 78.9189 1.512C77.3109 1.512 75.8349 1.8 74.4909 2.376C73.1709 2.928 72.0189 3.72 71.0349 4.752C70.0509 5.784 69.2949 6.984 68.7669 8.352C68.2389 9.72 67.9749 11.22 67.9749 12.852C67.9749 15.036 68.4429 17.004 69.3789 18.756C70.3149 20.484 71.5989 21.864 73.2309 22.896C74.8869 23.904 76.7829 24.408 78.9189 24.408C80.3109 24.408 81.6069 24.18 82.8069 23.724C84.0309 23.268 85.1109 22.644 86.0469 21.852C86.9829 21.036 87.6909 20.076 88.1709 18.972L89.5389 19.584ZM100.277 25.56V0.359996H109.169C110.201 0.359996 111.149 0.527996 112.013 0.863996C112.901 1.2 113.669 1.68 114.317 2.304C114.989 2.928 115.505 3.66 115.865 4.5C116.225 5.316 116.405 6.228 116.405 7.236C116.405 8.604 116.093 9.816 115.469 10.872C114.845 11.928 113.993 12.756 112.913 13.356C111.857 13.956 110.609 14.256 109.169 14.256H101.897V25.56H100.277ZM115.433 25.56L106.757 13.644H108.557L117.377 25.56H115.433ZM101.897 12.708H109.025C110.177 12.708 111.173 12.48 112.013 12.024C112.877 11.544 113.549 10.896 114.029 10.08C114.533 9.264 114.785 8.316 114.785 7.236C114.785 6.18 114.533 5.256 114.029 4.464C113.549 3.672 112.877 3.048 112.013 2.592C111.173 2.136 110.177 1.908 109.025 1.908H101.897V12.708ZM124.112 0.359996H126.056L134.12 12.384L142.112 0.359996H143.984L134.912 13.968V25.56H133.292V13.968L124.112 0.359996ZM159.658 -3.8147e-06C160.738 -3.8147e-06 161.758 0.131996 162.718 0.395995C163.678 0.635997 164.542 0.983997 165.31 1.44C166.078 1.872 166.69 2.388 167.146 2.988L166.102 4.176C165.478 3.384 164.578 2.748 163.402 2.268C162.25 1.764 160.978 1.512 159.586 1.512C158.434 1.512 157.39 1.716 156.454 2.124C155.542 2.532 154.822 3.096 154.294 3.816C153.766 4.536 153.502 5.364 153.502 6.3C153.502 7.428 153.766 8.34 154.294 9.036C154.822 9.708 155.518 10.248 156.382 10.656C157.27 11.064 158.23 11.412 159.262 11.7C160.318 11.988 161.362 12.288 162.394 12.6C163.45 12.912 164.41 13.308 165.274 13.788C166.162 14.268 166.87 14.916 167.398 15.732C167.926 16.524 168.19 17.568 168.19 18.864C168.19 20.184 167.842 21.384 167.146 22.464C166.45 23.544 165.478 24.396 164.23 25.02C163.006 25.62 161.566 25.92 159.91 25.92C158.662 25.92 157.498 25.776 156.418 25.488C155.362 25.2 154.39 24.816 153.502 24.336C152.614 23.832 151.786 23.28 151.018 22.68L152.026 21.42C153.034 22.236 154.186 22.944 155.482 23.544C156.778 24.12 158.254 24.408 159.91 24.408C161.206 24.408 162.346 24.168 163.33 23.688C164.338 23.208 165.13 22.548 165.706 21.708C166.282 20.868 166.57 19.92 166.57 18.864C166.57 17.808 166.306 16.956 165.778 16.308C165.25 15.636 164.542 15.12 163.654 14.76C162.79 14.376 161.83 14.052 160.774 13.788C159.742 13.5 158.698 13.2 157.642 12.888C156.61 12.552 155.65 12.144 154.762 11.664C153.898 11.16 153.202 10.488 152.674 9.648C152.146 8.784 151.882 7.692 151.882 6.372C151.882 5.46 152.074 4.62 152.458 3.852C152.842 3.06 153.382 2.376 154.078 1.8C154.798 1.224 155.626 0.779997 156.562 0.467997C157.522 0.155996 158.554 -3.8147e-06 159.658 -3.8147e-06ZM185.755 25.56H184.135V0.359996H185.755V25.56ZM194.395 1.872H175.495V0.359996H194.395V1.872ZM204.35 0.359996H217.886V1.872H205.97V11.124H216.59V12.636H205.97V24.048H217.886V25.56H204.35V0.359996ZM229.164 0.359996H230.784V24.048H244.032V25.56H229.164V0.359996ZM254.049 0.359996H255.669V24.048H268.917V25.56H254.049V0.359996ZM278.933 0.359996H292.469V1.872H280.553V11.124H291.173V12.636H280.553V24.048H292.469V25.56H278.933V0.359996ZM325.218 25.56H323.598V0.359996H325.218V25.56ZM333.858 1.872H314.958V0.359996H333.858V1.872ZM343.813 0.359996H357.349V1.872H345.433V11.124H356.053V12.636H345.433V24.048H357.349V25.56H343.813V0.359996ZM368.628 25.56V0.359996H377.52C378.552 0.359996 379.5 0.527996 380.364 0.863996C381.252 1.2 382.02 1.68 382.668 2.304C383.34 2.928 383.856 3.66 384.216 4.5C384.576 5.316 384.756 6.228 384.756 7.236C384.756 8.604 384.444 9.816 383.82 10.872C383.196 11.928 382.344 12.756 381.264 13.356C380.208 13.956 378.96 14.256 377.52 14.256H370.248V25.56H368.628ZM383.784 25.56L375.108 13.644H376.908L385.728 25.56H383.784ZM370.248 12.708H377.376C378.528 12.708 379.524 12.48 380.364 12.024C381.228 11.544 381.9 10.896 382.38 10.08C382.884 9.264 383.136 8.316 383.136 7.236C383.136 6.18 382.884 5.256 382.38 4.464C381.9 3.672 381.228 3.048 380.364 2.592C379.524 2.136 378.528 1.908 377.376 1.908H370.248V12.708ZM396.325 25.56V0.359996H405.217C406.249 0.359996 407.197 0.527996 408.061 0.863996C408.949 1.2 409.717 1.68 410.365 2.304C411.037 2.928 411.553 3.66 411.913 4.5C412.273 5.316 412.453 6.228 412.453 7.236C412.453 8.604 412.141 9.816 411.517 10.872C410.893 11.928 410.041 12.756 408.961 13.356C407.905 13.956 406.657 14.256 405.217 14.256H397.945V25.56H396.325ZM411.481 25.56L402.805 13.644H404.605L413.425 25.56H411.481ZM397.945 12.708H405.073C406.225 12.708 407.221 12.48 408.061 12.024C408.925 11.544 409.597 10.896 410.077 10.08C410.581 9.264 410.833 8.316 410.833 7.236C410.833 6.18 410.581 5.256 410.077 4.464C409.597 3.672 408.925 3.048 408.061 2.592C407.221 2.136 406.225 1.908 405.073 1.908H397.945V12.708ZM433.058 0.359996L443.174 25.56H441.446L432.194 2.484L422.978 25.56H421.286L431.402 0.359996H433.058ZM438.71 17.064L439.322 18.576H424.994L425.606 17.064H438.71ZM459.644 -3.8147e-06C460.724 -3.8147e-06 461.744 0.131996 462.704 0.395995C463.664 0.635997 464.528 0.983997 465.296 1.44C466.064 1.872 466.676 2.388 467.132 2.988L466.088 4.176C465.464 3.384 464.564 2.748 463.388 2.268C462.236 1.764 460.964 1.512 459.572 1.512C458.42 1.512 457.376 1.716 456.44 2.124C455.528 2.532 454.808 3.096 454.28 3.816C453.752 4.536 453.488 5.364 453.488 6.3C453.488 7.428 453.752 8.34 454.28 9.036C454.808 9.708 455.504 10.248 456.368 10.656C457.256 11.064 458.216 11.412 459.248 11.7C460.304 11.988 461.348 12.288 462.38 12.6C463.436 12.912 464.396 13.308 465.26 13.788C466.148 14.268 466.856 14.916 467.384 15.732C467.912 16.524 468.176 17.568 468.176 18.864C468.176 20.184 467.828 21.384 467.132 22.464C466.436 23.544 465.464 24.396 464.216 25.02C462.992 25.62 461.552 25.92 459.896 25.92C458.648 25.92 457.484 25.776 456.404 25.488C455.348 25.2 454.376 24.816 453.488 24.336C452.6 23.832 451.772 23.28 451.004 22.68L452.012 21.42C453.02 22.236 454.172 22.944 455.468 23.544C456.764 24.12 458.24 24.408 459.896 24.408C461.192 24.408 462.332 24.168 463.316 23.688C464.324 23.208 465.116 22.548 465.692 21.708C466.268 20.868 466.556 19.92 466.556 18.864C466.556 17.808 466.292 16.956 465.764 16.308C465.236 15.636 464.528 15.12 463.64 14.76C462.776 14.376 461.816 14.052 460.76 13.788C459.728 13.5 458.684 13.2 457.628 12.888C456.596 12.552 455.636 12.144 454.748 11.664C453.884 11.16 453.188 10.488 452.66 9.648C452.132 8.784 451.868 7.692 451.868 6.372C451.868 5.46 452.06 4.62 452.444 3.852C452.828 3.06 453.368 2.376 454.064 1.8C454.784 1.224 455.612 0.779997 456.548 0.467997C457.508 0.155996 458.54 -3.8147e-06 459.644 -3.8147e-06ZM485.759 -3.8147e-06C486.839 -3.8147e-06 487.859 0.131996 488.819 0.395995C489.779 0.635997 490.643 0.983997 491.411 1.44C492.179 1.872 492.791 2.388 493.247 2.988L492.203 4.176C491.579 3.384 490.679 2.748 489.503 2.268C488.351 1.764 487.079 1.512 485.687 1.512C484.535 1.512 483.491 1.716 482.555 2.124C481.643 2.532 480.923 3.096 480.395 3.816C479.867 4.536 479.603 5.364 479.603 6.3C479.603 7.428 479.867 8.34 480.395 9.036C480.923 9.708 481.619 10.248 482.483 10.656C483.371 11.064 484.331 11.412 485.363 11.7C486.419 11.988 487.463 12.288 488.495 12.6C489.551 12.912 490.511 13.308 491.375 13.788C492.263 14.268 492.971 14.916 493.499 15.732C494.027 16.524 494.291 17.568 494.291 18.864C494.291 20.184 493.943 21.384 493.247 22.464C492.551 23.544 491.579 24.396 490.331 25.02C489.107 25.62 487.667 25.92 486.011 25.92C484.763 25.92 483.599 25.776 482.519 25.488C481.463 25.2 480.491 24.816 479.603 24.336C478.715 23.832 477.887 23.28 477.119 22.68L478.127 21.42C479.135 22.236 480.287 22.944 481.583 23.544C482.879 24.12 484.355 24.408 486.011 24.408C487.307 24.408 488.447 24.168 489.431 23.688C490.439 23.208 491.231 22.548 491.807 21.708C492.383 20.868 492.671 19.92 492.671 18.864C492.671 17.808 492.407 16.956 491.879 16.308C491.351 15.636 490.643 15.12 489.755 14.76C488.891 14.376 487.931 14.052 486.875 13.788C485.843 13.5 484.799 13.2 483.743 12.888C482.711 12.552 481.751 12.144 480.863 11.664C479.999 11.16 479.303 10.488 478.775 9.648C478.247 8.784 477.983 7.692 477.983 6.372C477.983 5.46 478.175 4.62 478.559 3.852C478.943 3.06 479.483 2.376 480.179 1.8C480.899 1.224 481.727 0.779997 482.663 0.467997C483.623 0.155996 484.655 -3.8147e-06 485.759 -3.8147e-06ZM516.266 -3.8147e-06C518.042 -3.8147e-06 519.698 0.335996 521.234 1.008C522.77 1.656 524.102 2.568 525.23 3.744C526.382 4.896 527.282 6.252 527.93 7.812C528.578 9.348 528.902 11.028 528.902 12.852C528.902 14.676 528.578 16.38 527.93 17.964C527.282 19.548 526.382 20.94 525.23 22.14C524.102 23.316 522.77 24.24 521.234 24.912C519.698 25.584 518.042 25.92 516.266 25.92C514.49 25.92 512.834 25.584 511.298 24.912C509.786 24.24 508.454 23.316 507.302 22.14C506.15 20.94 505.25 19.548 504.602 17.964C503.954 16.38 503.63 14.676 503.63 12.852C503.63 11.028 503.954 9.348 504.602 7.812C505.25 6.252 506.15 4.896 507.302 3.744C508.454 2.568 509.786 1.656 511.298 1.008C512.834 0.335996 514.49 -3.8147e-06 516.266 -3.8147e-06ZM516.266 1.512C514.73 1.512 513.29 1.8 511.946 2.376C510.626 2.952 509.462 3.768 508.454 4.824C507.47 5.856 506.69 7.056 506.114 8.424C505.562 9.792 505.286 11.268 505.286 12.852C505.286 14.46 505.562 15.972 506.114 17.388C506.69 18.78 507.47 20.004 508.454 21.06C509.462 22.116 510.626 22.944 511.946 23.544C513.29 24.12 514.73 24.408 516.266 24.408C517.826 24.408 519.266 24.12 520.586 23.544C521.906 22.944 523.07 22.116 524.078 21.06C525.086 20.004 525.866 18.78 526.418 17.388C526.994 15.972 527.282 14.46 527.282 12.852C527.282 11.268 526.994 9.792 526.418 8.424C525.866 7.056 525.086 5.856 524.078 4.824C523.07 3.768 521.906 2.952 520.586 2.376C519.266 1.8 517.826 1.512 516.266 1.512ZM540.154 0.359996H541.882L557.65 22.932V0.359996H559.27V25.56H557.578L541.774 2.988V25.56H540.154V0.359996Z" fill="black"/>
</svg>
