<svg width="883" height="356" viewBox="0 0 883 356" fill="none" xmlns="http://www.w3.org/2000/svg">
<path d="M31.8312 67.01C23.0389 67.01 15.5356 63.8482 9.32138 57.5245C3.10713 51.2008 0 43.641 0 34.8449C0 26.0488 3.10713 18.5423 9.32138 12.3254C15.5356 6.10846 23.0389 3 31.8312 3C40.6235 3 48.1801 6.10846 54.5011 12.3254C60.822 18.5423 63.9825 26.0488 63.9825 34.8449C63.9825 43.641 60.822 51.2008 54.5011 57.5245C48.1801 63.8482 40.6235 67.01 31.8312 67.01Z" fill="black"/>
<path d="M16.957 347.804V116.267V87.4331H46.992V347.804H16.957Z" fill="black"/>
<path d="M224.21 258.534V88.2961H255.059V258.534H224.21ZM128.738 88.2961V181.435C128.738 191.591 130.66 200.439 134.506 207.98C138.351 215.521 143.719 221.341 150.61 225.439C157.5 229.538 165.51 231.587 174.639 231.587C184.942 231.587 194.617 229.008 203.663 223.849C212.708 218.69 219.673 211.827 224.559 203.26V232.664C219.179 241.644 211.356 248.783 201.09 254.08C190.824 259.377 179.702 262.026 167.725 262.026C153.606 262.026 141.333 258.918 130.906 252.701C120.478 246.484 112.369 237.62 106.577 226.11C100.785 214.601 97.8887 201.197 97.8887 185.9V88.2961H128.738Z" fill="black"/>
<path d="M447.778 86.53L384.87 166.282L439.621 240.373C444.128 246.472 451.261 250.07 458.844 250.07H465.717V258.57H428.897C421.313 258.57 414.178 254.971 409.67 248.87L350.626 168.945H336.481V258.57H305.717V0H312.579C325.78 0 336.481 10.701 336.481 23.902V165.084H351.306L384.475 122.788L412.807 86.53H447.778Z" fill="black"/>
<path d="M601.778 86.53L538.87 166.282L607.068 258.57H582.897C575.313 258.57 568.178 254.971 563.67 248.87L504.626 168.945H490.481V258.57H459.717V0H466.579C479.78 0 490.481 10.701 490.481 23.902V165.084H505.306L538.475 122.788L566.807 86.53H601.778Z" fill="black"/>
<path d="M785.298 88.296V258.534H754.45V88.296H785.298ZM754.799 143.775C751.842 137.918 747.63 132.752 742.163 128.276C736.695 123.801 730.58 120.294 723.819 117.754C717.058 115.216 710.071 113.946 702.857 113.946C691.663 113.946 681.608 116.516 672.692 121.654C663.776 126.794 656.714 133.831 651.507 142.767C646.3 151.704 643.696 161.886 643.696 173.312C643.696 184.644 646.3 194.801 651.507 203.785C656.714 212.77 663.776 219.866 672.692 225.073C681.608 230.281 691.663 232.884 702.857 232.884C710.071 232.884 717.024 231.615 723.717 229.075C730.41 226.537 736.524 223.03 742.06 218.554C747.596 214.079 751.842 209.029 754.799 203.404V232.869C751.787 238.291 747.235 243.222 741.143 247.663C735.051 252.105 728.193 255.61 720.568 258.176C712.943 260.743 705.071 262.026 696.952 262.026C681.248 262.026 667.073 258.089 654.428 250.215C641.783 242.341 631.788 231.698 624.443 218.285C617.097 204.872 613.424 189.881 613.424 173.312C613.424 160.838 615.539 149.223 619.77 138.466C624.001 127.71 629.905 118.337 637.484 110.346C645.062 102.356 653.918 96.102 664.051 91.582C674.183 87.064 685.15 84.804 696.952 84.804C705.207 84.804 713.182 86.088 720.876 88.654C728.569 91.22 735.428 94.724 741.451 99.166C747.474 103.608 751.923 108.608 754.799 114.166V143.775Z" fill="black"/>
<path d="M834.781 258.534V229.642V116.325V87.433H865.503V229.642V258.534H834.781Z" fill="black"/>
<path d="M850.331 64.096C841.539 64.096 834.036 60.934 827.821 54.61C821.607 48.287 818.5 40.727 818.5 31.931C818.5 23.135 821.607 15.628 827.821 9.411C834.036 3.194 841.539 0.086 850.331 0.086C859.123 0.086 866.68 3.194 873.001 9.411C879.322 15.628 882.482 23.135 882.482 31.931C882.482 40.727 879.322 48.287 873.001 54.61C866.68 60.934 859.123 64.096 850.331 64.096Z" fill="black"/>
<path d="M311.048 347.438V321.839H319.642C320.934 321.839 322.104 322.12 323.153 322.68C324.201 323.241 325.03 323.997 325.639 324.948C326.273 325.874 326.59 326.922 326.59 328.093C326.59 329.044 326.383 329.946 325.969 330.799C325.554 331.628 324.993 332.323 324.286 332.883C323.579 333.444 322.787 333.785 321.909 333.907C323.055 333.98 324.079 334.322 324.981 334.931C325.908 335.541 326.639 336.333 327.175 337.308C327.712 338.259 327.98 339.32 327.98 340.49C327.98 341.782 327.663 342.952 327.029 344.001C326.395 345.049 325.53 345.89 324.433 346.524C323.36 347.133 322.141 347.438 320.776 347.438H311.048ZM312.657 345.902H320.703C321.8 345.902 322.763 345.658 323.592 345.171C324.445 344.683 325.115 344.025 325.603 343.196C326.09 342.343 326.334 341.404 326.334 340.38C326.334 339.332 326.078 338.393 325.566 337.564C325.079 336.735 324.408 336.077 323.555 335.59C322.726 335.102 321.775 334.858 320.703 334.858H312.657V345.902ZM312.657 333.359H319.605C320.605 333.359 321.507 333.127 322.312 332.664C323.141 332.201 323.787 331.579 324.25 330.799C324.713 330.019 324.945 329.153 324.945 328.202C324.945 327.3 324.701 326.484 324.213 325.752C323.75 325.021 323.116 324.448 322.312 324.033C321.507 323.595 320.605 323.375 319.605 323.375H312.657V333.359ZM334.645 321.839H336.62L344.812 334.054L352.93 321.839H354.832L345.616 335.663V347.438H343.971V335.663L334.645 321.839ZM400.052 341.368C399.564 342.66 398.784 343.793 397.711 344.769C396.639 345.719 395.371 346.463 393.908 346.999C392.47 347.536 390.921 347.804 389.264 347.804C387.411 347.804 385.704 347.475 384.144 346.817C382.608 346.158 381.255 345.232 380.084 344.037C378.939 342.818 378.049 341.404 377.415 339.795C376.805 338.162 376.501 336.406 376.501 334.529C376.501 332.676 376.805 330.957 377.415 329.373C378.049 327.764 378.939 326.374 380.084 325.204C381.255 324.033 382.608 323.119 384.144 322.461C385.704 321.803 387.411 321.474 389.264 321.474C390.434 321.474 391.555 321.608 392.628 321.876C393.725 322.144 394.725 322.534 395.627 323.046C396.553 323.558 397.358 324.168 398.04 324.875C398.747 325.557 399.308 326.337 399.723 327.215L398.333 327.946C397.821 326.947 397.114 326.081 396.212 325.35C395.31 324.619 394.261 324.046 393.067 323.631C391.872 323.217 390.604 323.009 389.264 323.009C387.63 323.009 386.131 323.302 384.765 323.887C383.425 324.448 382.254 325.252 381.255 326.301C380.255 327.349 379.487 328.568 378.951 329.958C378.414 331.347 378.146 332.871 378.146 334.529C378.146 336.748 378.622 338.747 379.573 340.527C380.523 342.282 381.828 343.684 383.485 344.732C385.168 345.756 387.094 346.268 389.264 346.268C390.678 346.268 391.994 346.036 393.213 345.573C394.456 345.11 395.554 344.476 396.504 343.672C397.455 342.843 398.174 341.867 398.662 340.746L400.052 341.368ZM410.308 347.438V321.839H419.341C420.39 321.839 421.353 322.01 422.23 322.351C423.132 322.693 423.912 323.18 424.571 323.814C425.253 324.448 425.778 325.191 426.143 326.045C426.509 326.874 426.692 327.8 426.692 328.824C426.692 330.214 426.375 331.445 425.741 332.518C425.107 333.59 424.242 334.432 423.145 335.041C422.072 335.651 420.804 335.955 419.341 335.955H411.954V347.438H410.308ZM425.704 347.438L416.891 335.334H418.72L427.679 347.438H425.704ZM411.954 334.383H419.195C420.365 334.383 421.377 334.151 422.23 333.688C423.108 333.2 423.791 332.542 424.278 331.713C424.79 330.884 425.046 329.921 425.046 328.824C425.046 327.751 424.79 326.813 424.278 326.008C423.791 325.204 423.108 324.57 422.23 324.107C421.377 323.643 420.365 323.412 419.195 323.412H411.954V334.383ZM433.87 321.839H435.845L444.037 334.054L452.155 321.839H454.057L444.841 335.663V347.438H443.195V335.663L433.87 321.839ZM469.328 321.474C470.425 321.474 471.461 321.608 472.437 321.876C473.412 322.12 474.289 322.473 475.07 322.936C475.85 323.375 476.471 323.899 476.935 324.509L475.874 325.716C475.24 324.911 474.326 324.265 473.131 323.777C471.961 323.265 470.669 323.009 469.255 323.009C468.085 323.009 467.024 323.217 466.073 323.631C465.147 324.046 464.416 324.619 463.879 325.35C463.343 326.081 463.075 326.922 463.075 327.873C463.075 329.019 463.343 329.946 463.879 330.653C464.416 331.335 465.123 331.884 466 332.298C466.902 332.713 467.878 333.066 468.926 333.359C469.999 333.651 471.059 333.956 472.107 334.273C473.18 334.59 474.155 334.992 475.033 335.48C475.935 335.967 476.654 336.626 477.191 337.455C477.727 338.259 477.995 339.32 477.995 340.636C477.995 341.977 477.642 343.196 476.935 344.293C476.228 345.39 475.24 346.256 473.973 346.89C472.729 347.499 471.266 347.804 469.584 347.804C468.316 347.804 467.134 347.658 466.037 347.365C464.964 347.073 463.977 346.682 463.075 346.195C462.173 345.683 461.331 345.122 460.551 344.513L461.575 343.233C462.599 344.062 463.769 344.781 465.086 345.39C466.403 345.975 467.902 346.268 469.584 346.268C470.901 346.268 472.059 346.024 473.058 345.537C474.082 345.049 474.887 344.379 475.472 343.525C476.057 342.672 476.35 341.709 476.35 340.636C476.35 339.563 476.081 338.698 475.545 338.04C475.009 337.357 474.289 336.833 473.387 336.467C472.51 336.077 471.535 335.748 470.462 335.48C469.413 335.187 468.353 334.883 467.28 334.566C466.232 334.224 465.257 333.81 464.355 333.322C463.477 332.81 462.77 332.128 462.234 331.274C461.697 330.397 461.429 329.287 461.429 327.946C461.429 327.02 461.624 326.167 462.014 325.387C462.404 324.582 462.953 323.887 463.66 323.302C464.391 322.717 465.232 322.266 466.183 321.949C467.158 321.632 468.207 321.474 469.328 321.474ZM495.187 347.438H493.541V321.839H495.187V347.438ZM503.964 323.375H484.765V321.839H503.964V323.375ZM513.426 321.839H527.176V323.375H515.071V332.774H525.86V334.31H515.071V345.902H527.176V347.438H513.426V321.839ZM537.982 321.839H539.628V345.902H553.085V347.438H537.982V321.839ZM562.61 321.839H564.255V345.902H577.713V347.438H562.61V321.839ZM587.237 321.839H600.988V323.375H588.883V332.774H599.671V334.31H588.883V345.902H600.988V347.438H587.237V321.839ZM632.953 347.438H631.308V321.839H632.953V347.438ZM641.73 323.375H622.531V321.839H641.73V323.375ZM651.192 321.839H664.942V323.375H652.838V332.774H663.626V334.31H652.838V345.902H664.942V347.438H651.192V321.839ZM675.748 347.438V321.839H684.781C685.829 321.839 686.792 322.01 687.67 322.351C688.572 322.693 689.352 323.18 690.01 323.814C690.693 324.448 691.217 325.191 691.583 326.045C691.949 326.874 692.131 327.8 692.131 328.824C692.131 330.214 691.814 331.445 691.181 332.518C690.547 333.59 689.681 334.432 688.584 335.041C687.511 335.651 686.244 335.955 684.781 335.955H677.394V347.438H675.748ZM691.144 347.438L682.331 335.334H684.159L693.119 347.438H691.144ZM677.394 334.383H684.635C685.805 334.383 686.817 334.151 687.67 333.688C688.548 333.2 689.23 332.542 689.718 331.713C690.23 330.884 690.486 329.921 690.486 328.824C690.486 327.751 690.23 326.813 689.718 326.008C689.23 325.204 688.548 324.57 687.67 324.107C686.817 323.643 685.805 323.412 684.635 323.412H677.394V334.383ZM703.233 347.438V321.839H712.265C713.314 321.839 714.277 322.01 715.155 322.351C716.057 322.693 716.837 323.18 717.495 323.814C718.178 324.448 718.702 325.191 719.068 326.045C719.433 326.874 719.616 327.8 719.616 328.824C719.616 330.214 719.299 331.445 718.665 332.518C718.031 333.59 717.166 334.432 716.069 335.041C714.996 335.651 713.728 335.955 712.265 335.955H704.878V347.438H703.233ZM718.629 347.438L709.815 335.334H711.644L720.603 347.438H718.629ZM704.878 334.383H712.119C713.289 334.383 714.301 334.151 715.155 333.688C716.032 333.2 716.715 332.542 717.202 331.713C717.714 330.884 717.97 329.921 717.97 328.824C717.97 327.751 717.714 326.813 717.202 326.008C716.715 325.204 716.032 324.57 715.155 324.107C714.301 323.643 713.289 323.412 712.119 323.412H704.878V334.383ZM739.896 321.839L750.173 347.438H748.417L739.019 323.997L729.657 347.438H727.938L738.214 321.839H739.896ZM745.638 338.808L746.26 340.344H731.705L732.326 338.808H745.638ZM766.252 321.474C767.349 321.474 768.385 321.608 769.361 321.876C770.336 322.12 771.214 322.473 771.994 322.936C772.774 323.375 773.396 323.899 773.859 324.509L772.798 325.716C772.164 324.911 771.25 324.265 770.056 323.777C768.885 323.265 767.593 323.009 766.179 323.009C765.009 323.009 763.948 323.217 762.997 323.631C762.071 324.046 761.34 324.619 760.803 325.35C760.267 326.081 759.999 326.922 759.999 327.873C759.999 329.019 760.267 329.946 760.803 330.653C761.34 331.335 762.047 331.884 762.924 332.298C763.826 332.713 764.802 333.066 765.85 333.359C766.923 333.651 767.983 333.956 769.032 334.273C770.104 334.59 771.079 334.992 771.957 335.48C772.859 335.967 773.578 336.626 774.115 337.455C774.651 338.259 774.919 339.32 774.919 340.636C774.919 341.977 774.566 343.196 773.859 344.293C773.152 345.39 772.164 346.256 770.897 346.89C769.653 347.499 768.19 347.804 766.508 347.804C765.24 347.804 764.058 347.658 762.961 347.365C761.888 347.073 760.901 346.682 759.999 346.195C759.097 345.683 758.256 345.122 757.475 344.513L758.499 343.233C759.523 344.062 760.694 344.781 762.01 345.39C763.327 345.975 764.826 346.268 766.508 346.268C767.825 346.268 768.983 346.024 769.982 345.537C771.006 345.049 771.811 344.379 772.396 343.525C772.981 342.672 773.274 341.709 773.274 340.636C773.274 339.563 773.005 338.698 772.469 338.04C771.933 337.357 771.214 336.833 770.311 336.467C769.434 336.077 768.459 335.748 767.386 335.48C766.338 335.187 765.277 334.883 764.204 334.566C763.156 334.224 762.181 333.81 761.279 333.322C760.401 332.81 759.694 332.128 759.158 331.274C758.621 330.397 758.353 329.287 758.353 327.946C758.353 327.02 758.548 326.167 758.938 325.387C759.328 324.582 759.877 323.887 760.584 323.302C761.315 322.717 762.156 322.266 763.107 321.949C764.082 321.632 765.131 321.474 766.252 321.474ZM792.13 321.474C793.227 321.474 794.263 321.608 795.238 321.876C796.213 322.12 797.091 322.473 797.871 322.936C798.651 323.375 799.273 323.899 799.736 324.509L798.676 325.716C798.042 324.911 797.128 324.265 795.933 323.777C794.763 323.265 793.471 323.009 792.057 323.009C790.886 323.009 789.826 323.217 788.875 323.631C787.949 324.046 787.217 324.619 786.681 325.35C786.144 326.081 785.876 326.922 785.876 327.873C785.876 329.019 786.144 329.946 786.681 330.653C787.217 331.335 787.924 331.884 788.802 332.298C789.704 332.713 790.679 333.066 791.728 333.359C792.8 333.651 793.861 333.956 794.909 334.273C795.982 334.59 796.957 334.992 797.835 335.48C798.737 335.967 799.456 336.626 799.992 337.455C800.529 338.259 800.797 339.32 800.797 340.636C800.797 341.977 800.443 343.196 799.736 344.293C799.029 345.39 798.042 346.256 796.774 346.89C795.531 347.499 794.068 347.804 792.386 347.804C791.118 347.804 789.936 347.658 788.838 347.365C787.766 347.073 786.778 346.682 785.876 346.195C784.974 345.683 784.133 345.122 783.353 344.513L784.377 343.233C785.401 344.062 786.571 344.781 787.888 345.39C789.204 345.975 790.704 346.268 792.386 346.268C793.702 346.268 794.86 346.024 795.86 345.537C796.884 345.049 797.688 344.379 798.274 343.525C798.859 342.672 799.151 341.709 799.151 340.636C799.151 339.563 798.883 338.698 798.347 338.04C797.81 337.357 797.091 336.833 796.189 336.467C795.311 336.077 794.336 335.748 793.263 335.48C792.215 335.187 791.155 334.883 790.082 334.566C789.034 334.224 788.058 333.81 787.156 333.322C786.279 332.81 785.572 332.128 785.035 331.274C784.499 330.397 784.231 329.287 784.231 327.946C784.231 327.02 784.426 326.167 784.816 325.387C785.206 324.582 785.754 323.887 786.461 323.302C787.193 322.717 788.034 322.266 788.985 321.949C789.96 321.632 791.008 321.474 792.13 321.474ZM822.469 321.474C824.273 321.474 825.955 321.815 827.516 322.497C829.076 323.156 830.429 324.082 831.575 325.277C832.745 326.447 833.659 327.825 834.318 329.409C834.976 330.97 835.305 332.676 835.305 334.529C835.305 336.382 834.976 338.113 834.318 339.722C833.659 341.331 832.745 342.745 831.575 343.964C830.429 345.159 829.076 346.097 827.516 346.78C825.955 347.463 824.273 347.804 822.469 347.804C820.665 347.804 818.983 347.463 817.422 346.78C815.886 346.097 814.533 345.159 813.363 343.964C812.193 342.745 811.278 341.331 810.62 339.722C809.962 338.113 809.633 336.382 809.633 334.529C809.633 332.676 809.962 330.97 810.62 329.409C811.278 327.825 812.193 326.447 813.363 325.277C814.533 324.082 815.886 323.156 817.422 322.497C818.983 321.815 820.665 321.474 822.469 321.474ZM822.469 323.009C820.909 323.009 819.446 323.302 818.08 323.887C816.74 324.472 815.557 325.301 814.533 326.374C813.534 327.422 812.741 328.641 812.156 330.031C811.595 331.421 811.315 332.92 811.315 334.529C811.315 336.162 811.595 337.698 812.156 339.137C812.741 340.551 813.534 341.794 814.533 342.867C815.557 343.94 816.74 344.781 818.08 345.39C819.446 345.975 820.909 346.268 822.469 346.268C824.054 346.268 825.516 345.975 826.857 345.39C828.198 344.781 829.381 343.94 830.405 342.867C831.429 341.794 832.221 340.551 832.782 339.137C833.367 337.698 833.659 336.162 833.659 334.529C833.659 332.92 833.367 331.421 832.782 330.031C832.221 328.641 831.429 327.422 830.405 326.374C829.381 325.301 828.198 324.472 826.857 323.887C825.516 323.302 824.054 323.009 822.469 323.009ZM846.084 321.839H847.84L863.857 344.769V321.839H865.503V347.438H863.784L847.73 324.509V347.438H846.084V321.839Z" fill="black"/>
</svg>
