<svg width="887" height="356" viewBox="0 0 887 356" fill="none" xmlns="http://www.w3.org/2000/svg">
<path d="M31.8312 67.01C23.0389 67.01 15.5356 63.8482 9.32138 57.5245C3.10713 51.2008 0 43.641 0 34.8449C0 26.0488 3.10713 18.5423 9.32138 12.3254C15.5356 6.10846 23.0389 3 31.8312 3C40.6235 3 48.1801 6.10846 54.5011 12.3254C60.822 18.5423 63.9825 26.0488 63.9825 34.8449C63.9825 43.641 60.822 51.2008 54.5011 57.5245C48.1801 63.8482 40.6235 67.01 31.8312 67.01Z" fill="black"/>
<path d="M16.957 347.804V116.267V87.4331H46.992V347.804H16.957Z" fill="black"/>
<path d="M224.21 258.534V88.2961H255.059V258.534H224.21ZM128.738 88.2961V181.435C128.738 191.591 130.66 200.439 134.506 207.98C138.351 215.521 143.719 221.341 150.61 225.439C157.5 229.538 165.51 231.587 174.639 231.587C184.942 231.587 194.617 229.008 203.663 223.849C212.708 218.69 219.673 211.827 224.559 203.26V232.664C219.179 241.644 211.356 248.783 201.09 254.08C190.824 259.377 179.702 262.026 167.725 262.026C153.606 262.026 141.333 258.918 130.906 252.701C120.478 246.484 112.369 237.62 106.577 226.11C100.785 214.601 97.8887 201.197 97.8887 185.9V88.2961H128.738Z" fill="black"/>
<path d="M447.778 86.53L384.281 167.027L440.959 243.74C445.468 249.842 452.604 253.443 460.191 253.443H469.191V258.57H428.897C421.313 258.57 414.178 254.971 409.67 248.87L352.988 172.142H336.481V258.57H305.717V0H312.579C325.78 0 336.481 10.701 336.481 23.902V161.887H352.67L383.766 122.233L411.664 86.53H447.778Z" fill="black"/>
<path d="M601.252 86.53L537.755 167.027L605.398 258.57H582.371C574.787 258.57 567.652 254.971 563.144 248.87L506.462 172.142H489.955V258.57H459.191V0H466.053C479.254 0 489.955 10.701 489.955 23.902V161.887H506.144L537.24 122.233L565.138 86.53H601.252Z" fill="black"/>
<path d="M784.772 88.296V258.534H753.924V88.296H784.772ZM754.273 143.775C751.316 137.918 747.104 132.752 741.637 128.276C736.169 123.801 730.054 120.294 723.293 117.754C716.532 115.216 709.545 113.946 702.331 113.946C691.137 113.946 681.082 116.516 672.166 121.654C663.25 126.794 656.188 133.831 650.981 142.767C645.774 151.704 643.17 161.886 643.17 173.312C643.17 184.644 645.774 194.801 650.981 203.785C656.188 212.77 663.25 219.866 672.166 225.073C681.082 230.281 691.137 232.884 702.331 232.884C709.545 232.884 716.498 231.615 723.191 229.075C729.884 226.537 735.998 223.03 741.534 218.554C747.07 214.079 751.316 209.029 754.273 203.404V232.869C751.261 238.291 746.709 243.222 740.617 247.663C734.525 252.105 727.667 255.61 720.042 258.176C712.417 260.743 704.545 262.026 696.426 262.026C680.722 262.026 666.547 258.089 653.902 250.215C641.257 242.341 631.262 231.698 623.917 218.285C616.571 204.872 612.898 189.881 612.898 173.312C612.898 160.838 615.013 149.223 619.244 138.466C623.475 127.71 629.379 118.337 636.958 110.346C644.536 102.356 653.392 96.102 663.525 91.582C673.657 87.064 684.624 84.804 696.426 84.804C704.681 84.804 712.656 86.088 720.35 88.654C728.043 91.22 734.902 94.724 740.925 99.166C746.948 103.608 751.397 108.608 754.273 114.166V143.775Z" fill="black"/>
<path d="M834.255 258.534V229.642V116.325V87.433H864.977V229.642V258.534H834.255Z" fill="black"/>
<path d="M849.805 64.0961C841.013 64.0961 833.51 60.9341 827.295 54.6101C821.081 48.2871 817.974 40.7271 817.974 31.9311C817.974 23.1351 821.081 15.6281 827.295 9.41106C833.51 3.19406 841.013 0.0860596 849.805 0.0860596C858.597 0.0860596 866.154 3.19406 872.475 9.41106C878.796 15.6281 881.956 23.1351 881.956 31.9311C881.956 40.7271 878.796 48.2871 872.475 54.6101C866.154 60.9341 858.597 64.0961 849.805 64.0961Z" fill="black"/>
</svg>
