<svg width="887" height="356" viewBox="0 0 887 356" fill="none" xmlns="http://www.w3.org/2000/svg">
<path d="M31.8312 67.01C23.0389 67.01 15.5356 63.8482 9.32138 57.5245C3.10713 51.2008 0 43.641 0 34.8449C0 26.0488 3.10713 18.5423 9.32138 12.3254C15.5356 6.10846 23.0389 3 31.8312 3C40.6235 3 48.1801 6.10846 54.5011 12.3254C60.822 18.5423 63.9825 26.0488 63.9825 34.8449C63.9825 43.641 60.822 51.2008 54.5011 57.5245C48.1801 63.8482 40.6235 67.01 31.8312 67.01Z" fill="black"/>
<path d="M16.957 347.804V116.267V87.4331H46.992V347.804H16.957Z" fill="black"/>
<path d="M224.21 258.534V88.2961H255.059V258.534H224.21ZM128.738 88.2961V181.435C128.738 191.591 130.66 200.439 134.506 207.98C138.351 215.521 143.719 221.341 150.61 225.439C157.5 229.538 165.51 231.587 174.639 231.587C184.942 231.587 194.617 229.008 203.663 223.849C212.708 218.69 219.673 211.827 224.559 203.26V232.664C219.179 241.644 211.356 248.783 201.09 254.08C190.824 259.377 179.702 262.026 167.725 262.026C153.606 262.026 141.333 258.918 130.906 252.701C120.478 246.484 112.369 237.62 106.577 226.11C100.785 214.601 97.8887 201.197 97.8887 185.9V88.2961H128.738Z" fill="black"/>
<path d="M447.778 86.53L384.281 167.027L440.959 243.74C445.468 249.842 452.604 253.443 460.191 253.443H469.191V258.57H428.897C421.313 258.57 414.178 254.971 409.67 248.87L352.988 172.142H336.481V258.57H305.717V0H312.579C325.78 0 336.481 10.701 336.481 23.902V161.887H352.67L383.766 122.233L411.664 86.53H447.778Z" fill="black"/>
<path d="M601.252 86.53L537.755 167.027L605.398 258.57H582.371C574.787 258.57 567.652 254.971 563.144 248.87L506.462 172.142H489.955V258.57H459.191V0H466.053C479.254 0 489.955 10.701 489.955 23.902V161.887H506.144L537.24 122.233L565.138 86.53H601.252Z" fill="black"/>
<path d="M784.772 88.296V258.534H753.924V88.296H784.772ZM754.273 143.775C751.316 137.918 747.104 132.752 741.637 128.276C736.169 123.801 730.054 120.294 723.293 117.754C716.532 115.216 709.545 113.946 702.331 113.946C691.137 113.946 681.082 116.516 672.166 121.654C663.25 126.794 656.188 133.831 650.981 142.767C645.774 151.704 643.17 161.886 643.17 173.312C643.17 184.644 645.774 194.801 650.981 203.785C656.188 212.77 663.25 219.866 672.166 225.073C681.082 230.281 691.137 232.884 702.331 232.884C709.545 232.884 716.498 231.615 723.191 229.075C729.884 226.537 735.998 223.03 741.534 218.554C747.07 214.079 751.316 209.029 754.273 203.404V232.869C751.261 238.291 746.709 243.222 740.617 247.663C734.525 252.105 727.667 255.61 720.042 258.176C712.417 260.743 704.545 262.026 696.426 262.026C680.722 262.026 666.547 258.089 653.902 250.215C641.257 242.341 631.262 231.698 623.917 218.285C616.571 204.872 612.898 189.881 612.898 173.312C612.898 160.838 615.013 149.223 619.244 138.466C623.475 127.71 629.379 118.337 636.958 110.346C644.536 102.356 653.392 96.102 663.525 91.582C673.657 87.064 684.624 84.804 696.426 84.804C704.681 84.804 712.656 86.088 720.35 88.654C728.043 91.22 734.902 94.724 740.925 99.166C746.948 103.608 751.397 108.608 754.273 114.166V143.775Z" fill="black"/>
<path d="M834.255 258.534V229.642V116.325V87.433H864.977V229.642V258.534H834.255Z" fill="black"/>
<path d="M849.805 64.0961C841.013 64.0961 833.51 60.9341 827.295 54.6101C821.081 48.2871 817.974 40.7271 817.974 31.9311C817.974 23.1351 821.081 15.6281 827.295 9.41106C833.51 3.19406 841.013 0.0860596 849.805 0.0860596C858.597 0.0860596 866.154 3.19406 872.475 9.41106C878.796 15.6281 881.956 23.1351 881.956 31.9311C881.956 40.7271 878.796 48.2871 872.475 54.6101C866.154 60.9341 858.597 64.0961 849.805 64.0961Z" fill="black"/>
<path d="M305.72 348V322.8H314.18C315.452 322.8 316.604 323.076 317.636 323.628C318.668 324.18 319.484 324.924 320.084 325.86C320.708 326.772 321.02 327.804 321.02 328.956C321.02 329.892 320.816 330.78 320.408 331.62C320 332.436 319.448 333.12 318.752 333.672C318.056 334.224 317.276 334.56 316.412 334.68C317.54 334.752 318.548 335.088 319.436 335.688C320.348 336.288 321.068 337.068 321.596 338.028C322.124 338.964 322.388 340.008 322.388 341.16C322.388 342.432 322.076 343.584 321.452 344.616C320.828 345.648 319.976 346.476 318.896 347.1C317.84 347.7 316.64 348 315.296 348H305.72ZM307.304 346.488H315.224C316.304 346.488 317.252 346.248 318.068 345.768C318.908 345.288 319.568 344.64 320.048 343.824C320.528 342.984 320.768 342.06 320.768 341.052C320.768 340.02 320.516 339.096 320.012 338.28C319.532 337.464 318.872 336.816 318.032 336.336C317.216 335.856 316.28 335.616 315.224 335.616H307.304V346.488ZM307.304 334.14H314.144C315.128 334.14 316.016 333.912 316.808 333.456C317.624 333 318.26 332.388 318.716 331.62C319.172 330.852 319.4 330 319.4 329.064C319.4 328.176 319.16 327.372 318.68 326.652C318.224 325.932 317.6 325.368 316.808 324.96C316.016 324.528 315.128 324.312 314.144 324.312H307.304V334.14ZM329.59 322.8H331.534L339.598 334.824L347.59 322.8H349.462L340.39 336.408V348H338.77V336.408L329.59 322.8ZM395.259 342.024C394.779 343.296 394.011 344.412 392.955 345.372C391.899 346.308 390.651 347.04 389.211 347.568C387.795 348.096 386.271 348.36 384.639 348.36C382.815 348.36 381.135 348.036 379.599 347.388C378.087 346.74 376.755 345.828 375.603 344.652C374.475 343.452 373.599 342.06 372.975 340.476C372.375 338.868 372.075 337.14 372.075 335.292C372.075 333.468 372.375 331.776 372.975 330.216C373.599 328.632 374.475 327.264 375.603 326.112C376.755 324.96 378.087 324.06 379.599 323.412C381.135 322.764 382.815 322.44 384.639 322.44C385.791 322.44 386.895 322.572 387.951 322.836C389.031 323.1 390.015 323.484 390.903 323.988C391.815 324.492 392.607 325.092 393.279 325.788C393.975 326.46 394.527 327.228 394.935 328.092L393.567 328.812C393.063 327.828 392.367 326.976 391.479 326.256C390.591 325.536 389.559 324.972 388.383 324.564C387.207 324.156 385.959 323.952 384.639 323.952C383.031 323.952 381.555 324.24 380.211 324.816C378.891 325.368 377.739 326.16 376.755 327.192C375.771 328.224 375.015 329.424 374.487 330.792C373.959 332.16 373.695 333.66 373.695 335.292C373.695 337.476 374.163 339.444 375.099 341.196C376.035 342.924 377.319 344.304 378.951 345.336C380.607 346.344 382.503 346.848 384.639 346.848C386.031 346.848 387.327 346.62 388.527 346.164C389.751 345.708 390.831 345.084 391.767 344.292C392.703 343.476 393.411 342.516 393.891 341.412L395.259 342.024ZM405.997 348V322.8H414.889C415.921 322.8 416.869 322.968 417.733 323.304C418.621 323.64 419.389 324.12 420.037 324.744C420.709 325.368 421.225 326.1 421.585 326.94C421.945 327.756 422.125 328.668 422.125 329.676C422.125 331.044 421.813 332.256 421.189 333.312C420.565 334.368 419.713 335.196 418.633 335.796C417.577 336.396 416.329 336.696 414.889 336.696H407.617V348H405.997ZM421.153 348L412.477 336.084H414.277L423.097 348H421.153ZM407.617 335.148H414.745C415.897 335.148 416.893 334.92 417.733 334.464C418.597 333.984 419.269 333.336 419.749 332.52C420.253 331.704 420.505 330.756 420.505 329.676C420.505 328.62 420.253 327.696 419.749 326.904C419.269 326.112 418.597 325.488 417.733 325.032C416.893 324.576 415.897 324.348 414.745 324.348H407.617V335.148ZM429.832 322.8H431.776L439.84 334.824L447.832 322.8H449.704L440.632 336.408V348H439.012V336.408L429.832 322.8ZM465.378 322.44C466.458 322.44 467.478 322.572 468.438 322.836C469.398 323.076 470.262 323.424 471.03 323.88C471.798 324.312 472.41 324.828 472.866 325.428L471.822 326.616C471.198 325.824 470.298 325.188 469.122 324.708C467.97 324.204 466.698 323.952 465.306 323.952C464.154 323.952 463.11 324.156 462.174 324.564C461.262 324.972 460.542 325.536 460.014 326.256C459.486 326.976 459.222 327.804 459.222 328.74C459.222 329.868 459.486 330.78 460.014 331.476C460.542 332.148 461.238 332.688 462.102 333.096C462.99 333.504 463.95 333.852 464.982 334.14C466.038 334.428 467.082 334.728 468.114 335.04C469.17 335.352 470.13 335.748 470.994 336.228C471.882 336.708 472.59 337.356 473.118 338.172C473.646 338.964 473.91 340.008 473.91 341.304C473.91 342.624 473.562 343.824 472.866 344.904C472.17 345.984 471.198 346.836 469.95 347.46C468.726 348.06 467.286 348.36 465.63 348.36C464.382 348.36 463.218 348.216 462.138 347.928C461.082 347.64 460.11 347.256 459.222 346.776C458.334 346.272 457.506 345.72 456.738 345.12L457.746 343.86C458.754 344.676 459.906 345.384 461.202 345.984C462.498 346.56 463.974 346.848 465.63 346.848C466.926 346.848 468.066 346.608 469.05 346.128C470.058 345.648 470.85 344.988 471.426 344.148C472.002 343.308 472.29 342.36 472.29 341.304C472.29 340.248 472.026 339.396 471.498 338.748C470.97 338.076 470.262 337.56 469.374 337.2C468.51 336.816 467.55 336.492 466.494 336.228C465.462 335.94 464.418 335.64 463.362 335.328C462.33 334.992 461.37 334.584 460.482 334.104C459.618 333.6 458.922 332.928 458.394 332.088C457.866 331.224 457.602 330.132 457.602 328.812C457.602 327.9 457.794 327.06 458.178 326.292C458.562 325.5 459.102 324.816 459.798 324.24C460.518 323.664 461.346 323.22 462.282 322.908C463.242 322.596 464.274 322.44 465.378 322.44ZM491.475 348H489.855V322.8H491.475V348ZM500.115 324.312H481.215V322.8H500.115V324.312ZM510.07 322.8H523.606V324.312H511.69V333.564H522.31V335.076H511.69V346.488H523.606V348H510.07V322.8ZM534.884 322.8H536.504V346.488H549.752V348H534.884V322.8ZM559.769 322.8H561.389V346.488H574.637V348H559.769V322.8ZM584.653 322.8H598.189V324.312H586.273V333.564H596.893V335.076H586.273V346.488H598.189V348H584.653V322.8ZM630.938 348H629.318V322.8H630.938V348ZM639.578 324.312H620.678V322.8H639.578V324.312ZM649.533 322.8H663.069V324.312H651.153V333.564H661.773V335.076H651.153V346.488H663.069V348H649.533V322.8ZM674.348 348V322.8H683.24C684.272 322.8 685.22 322.968 686.084 323.304C686.972 323.64 687.74 324.12 688.388 324.744C689.06 325.368 689.576 326.1 689.936 326.94C690.296 327.756 690.476 328.668 690.476 329.676C690.476 331.044 690.164 332.256 689.54 333.312C688.916 334.368 688.064 335.196 686.984 335.796C685.928 336.396 684.68 336.696 683.24 336.696H675.968V348H674.348ZM689.504 348L680.828 336.084H682.628L691.448 348H689.504ZM675.968 335.148H683.096C684.248 335.148 685.244 334.92 686.084 334.464C686.948 333.984 687.62 333.336 688.1 332.52C688.604 331.704 688.856 330.756 688.856 329.676C688.856 328.62 688.604 327.696 688.1 326.904C687.62 326.112 686.948 325.488 686.084 325.032C685.244 324.576 684.248 324.348 683.096 324.348H675.968V335.148ZM702.045 348V322.8H710.937C711.969 322.8 712.917 322.968 713.781 323.304C714.669 323.64 715.437 324.12 716.085 324.744C716.757 325.368 717.273 326.1 717.633 326.94C717.993 327.756 718.173 328.668 718.173 329.676C718.173 331.044 717.861 332.256 717.237 333.312C716.613 334.368 715.761 335.196 714.681 335.796C713.625 336.396 712.377 336.696 710.937 336.696H703.665V348H702.045ZM717.201 348L708.525 336.084H710.325L719.145 348H717.201ZM703.665 335.148H710.793C711.945 335.148 712.941 334.92 713.781 334.464C714.645 333.984 715.317 333.336 715.797 332.52C716.301 331.704 716.553 330.756 716.553 329.676C716.553 328.62 716.301 327.696 715.797 326.904C715.317 326.112 714.645 325.488 713.781 325.032C712.941 324.576 711.945 324.348 710.793 324.348H703.665V335.148ZM738.778 322.8L748.894 348H747.166L737.914 324.924L728.698 348H727.006L737.122 322.8H738.778ZM744.43 339.504L745.042 341.016H730.714L731.326 339.504H744.43ZM765.364 322.44C766.444 322.44 767.464 322.572 768.424 322.836C769.384 323.076 770.248 323.424 771.016 323.88C771.784 324.312 772.396 324.828 772.852 325.428L771.808 326.616C771.184 325.824 770.284 325.188 769.108 324.708C767.956 324.204 766.684 323.952 765.292 323.952C764.14 323.952 763.096 324.156 762.16 324.564C761.248 324.972 760.528 325.536 760 326.256C759.472 326.976 759.208 327.804 759.208 328.74C759.208 329.868 759.472 330.78 760 331.476C760.528 332.148 761.224 332.688 762.088 333.096C762.976 333.504 763.936 333.852 764.968 334.14C766.024 334.428 767.068 334.728 768.1 335.04C769.156 335.352 770.116 335.748 770.98 336.228C771.868 336.708 772.576 337.356 773.104 338.172C773.632 338.964 773.896 340.008 773.896 341.304C773.896 342.624 773.548 343.824 772.852 344.904C772.156 345.984 771.184 346.836 769.936 347.46C768.712 348.06 767.272 348.36 765.616 348.36C764.368 348.36 763.204 348.216 762.124 347.928C761.068 347.64 760.096 347.256 759.208 346.776C758.32 346.272 757.492 345.72 756.724 345.12L757.732 343.86C758.74 344.676 759.892 345.384 761.188 345.984C762.484 346.56 763.96 346.848 765.616 346.848C766.912 346.848 768.052 346.608 769.036 346.128C770.044 345.648 770.836 344.988 771.412 344.148C771.988 343.308 772.276 342.36 772.276 341.304C772.276 340.248 772.012 339.396 771.484 338.748C770.956 338.076 770.248 337.56 769.36 337.2C768.496 336.816 767.536 336.492 766.48 336.228C765.448 335.94 764.404 335.64 763.348 335.328C762.316 334.992 761.356 334.584 760.468 334.104C759.604 333.6 758.908 332.928 758.38 332.088C757.852 331.224 757.588 330.132 757.588 328.812C757.588 327.9 757.78 327.06 758.164 326.292C758.548 325.5 759.088 324.816 759.784 324.24C760.504 323.664 761.332 323.22 762.268 322.908C763.228 322.596 764.26 322.44 765.364 322.44ZM791.479 322.44C792.559 322.44 793.579 322.572 794.539 322.836C795.499 323.076 796.363 323.424 797.131 323.88C797.899 324.312 798.511 324.828 798.967 325.428L797.923 326.616C797.299 325.824 796.399 325.188 795.223 324.708C794.071 324.204 792.799 323.952 791.407 323.952C790.255 323.952 789.211 324.156 788.275 324.564C787.363 324.972 786.643 325.536 786.115 326.256C785.587 326.976 785.323 327.804 785.323 328.74C785.323 329.868 785.587 330.78 786.115 331.476C786.643 332.148 787.339 332.688 788.203 333.096C789.091 333.504 790.051 333.852 791.083 334.14C792.139 334.428 793.183 334.728 794.215 335.04C795.271 335.352 796.231 335.748 797.095 336.228C797.983 336.708 798.691 337.356 799.219 338.172C799.747 338.964 800.011 340.008 800.011 341.304C800.011 342.624 799.663 343.824 798.967 344.904C798.271 345.984 797.299 346.836 796.051 347.46C794.827 348.06 793.387 348.36 791.731 348.36C790.483 348.36 789.319 348.216 788.239 347.928C787.183 347.64 786.211 347.256 785.323 346.776C784.435 346.272 783.607 345.72 782.839 345.12L783.847 343.86C784.855 344.676 786.007 345.384 787.303 345.984C788.599 346.56 790.075 346.848 791.731 346.848C793.027 346.848 794.167 346.608 795.151 346.128C796.159 345.648 796.951 344.988 797.527 344.148C798.103 343.308 798.391 342.36 798.391 341.304C798.391 340.248 798.127 339.396 797.599 338.748C797.071 338.076 796.363 337.56 795.475 337.2C794.611 336.816 793.651 336.492 792.595 336.228C791.563 335.94 790.519 335.64 789.463 335.328C788.431 334.992 787.471 334.584 786.583 334.104C785.719 333.6 785.023 332.928 784.495 332.088C783.967 331.224 783.703 330.132 783.703 328.812C783.703 327.9 783.895 327.06 784.279 326.292C784.663 325.5 785.203 324.816 785.899 324.24C786.619 323.664 787.447 323.22 788.383 322.908C789.343 322.596 790.375 322.44 791.479 322.44ZM821.986 322.44C823.762 322.44 825.418 322.776 826.954 323.448C828.49 324.096 829.822 325.008 830.95 326.184C832.102 327.336 833.002 328.692 833.65 330.252C834.298 331.788 834.622 333.468 834.622 335.292C834.622 337.116 834.298 338.82 833.65 340.404C833.002 341.988 832.102 343.38 830.95 344.58C829.822 345.756 828.49 346.68 826.954 347.352C825.418 348.024 823.762 348.36 821.986 348.36C820.21 348.36 818.554 348.024 817.018 347.352C815.506 346.68 814.174 345.756 813.022 344.58C811.87 343.38 810.97 341.988 810.322 340.404C809.674 338.82 809.35 337.116 809.35 335.292C809.35 333.468 809.674 331.788 810.322 330.252C810.97 328.692 811.87 327.336 813.022 326.184C814.174 325.008 815.506 324.096 817.018 323.448C818.554 322.776 820.21 322.44 821.986 322.44ZM821.986 323.952C820.45 323.952 819.01 324.24 817.666 324.816C816.346 325.392 815.182 326.208 814.174 327.264C813.19 328.296 812.41 329.496 811.834 330.864C811.282 332.232 811.006 333.708 811.006 335.292C811.006 336.9 811.282 338.412 811.834 339.828C812.41 341.22 813.19 342.444 814.174 343.5C815.182 344.556 816.346 345.384 817.666 345.984C819.01 346.56 820.45 346.848 821.986 346.848C823.546 346.848 824.986 346.56 826.306 345.984C827.626 345.384 828.79 344.556 829.798 343.5C830.806 342.444 831.586 341.22 832.138 339.828C832.714 338.412 833.002 336.9 833.002 335.292C833.002 333.708 832.714 332.232 832.138 330.864C831.586 329.496 830.806 328.296 829.798 327.264C828.79 326.208 827.626 325.392 826.306 324.816C824.986 324.24 823.546 323.952 821.986 323.952ZM845.874 322.8H847.602L863.37 345.372V322.8H864.99V348H863.298L847.494 325.428V348H845.874V322.8Z" fill="black"/>
</svg>
