<svg xmlns="http://www.w3.org/2000/svg" width="168" height="240" viewBox="0 0 168 240"><desc>Jukkai 述懐 seal — Shippori Mincho B1 Bold (SIL OFL 1.1), parametric composition</desc><path d="M5.50,84.00 A78.50,78.50 0 0 1 162.50,84.00 L162.50,156.00 A78.50,78.50 0 0 1 5.50,156.00 Z" fill="none" stroke="currentColor" stroke-width="7"/><path d="M14.60,84.00 A69.40,69.40 0 0 1 153.40,84.00 L153.40,156.00 A69.40,69.40 0 0 1 14.60,156.00 Z" fill="none" stroke="currentColor" stroke-width="2.2"/><path transform="translate(42.082,111.072) scale(83.8354)" d="M0.7970 -0.6540 0.7990 -0.6570Q0.8130 -0.6760 0.8060 -0.6790L0.7980 -0.6830Q0.7860 -0.6880 0.7810 -0.7050Q0.7690 -0.7510 0.7300 -0.8030Q0.7170 -0.8190 0.7200 -0.8220Q0.7250 -0.8250 0.7400 -0.8240Q0.8110 -0.8160 0.8455 -0.7895Q0.8800 -0.7630 0.8800 -0.7310Q0.8800 -0.7220 0.8770 -0.7140Q0.8750 -0.7090 0.8750 -0.7010Q0.8750 -0.6920 0.8830 -0.6850L0.9340 -0.6420Q0.9440 -0.6320 0.9440 -0.6250Q0.9440 -0.6200 0.9390 -0.6170Q0.9320 -0.6140 0.9220 -0.6140H0.7050Q0.6950 -0.6140 0.6895 -0.6085Q0.6840 -0.6030 0.6840 -0.5930V-0.3500Q0.6860 -0.2420 0.6910 -0.1290V-0.1240Q0.6910 -0.1120 0.6830 -0.1040Q0.6670 -0.0910 0.6420 -0.0815Q0.6170 -0.0720 0.5930 -0.0720Q0.5780 -0.0720 0.5695 -0.0780Q0.5610 -0.0840 0.5610 -0.0920Q0.5650 -0.1510 0.5680 -0.2065Q0.5710 -0.2620 0.5720 -0.3520V-0.5930Q0.5720 -0.6030 0.5665 -0.6085Q0.5610 -0.6140 0.5510 -0.6140H0.4820Q0.4210 -0.6130 0.3500 -0.6030H0.3440Q0.3300 -0.6030 0.3240 -0.6160L0.3210 -0.6220Q0.3180 -0.6280 0.3180 -0.6340Q0.3180 -0.6400 0.3230 -0.6435Q0.3280 -0.6470 0.3370 -0.6460Q0.3710 -0.6430 0.4400 -0.6410H0.5510Q0.5720 -0.6410 0.5720 -0.6490Q0.5720 -0.7500 0.5630 -0.8290V-0.8330Q0.5630 -0.8420 0.5690 -0.8465Q0.5750 -0.8510 0.5860 -0.8480Q0.6560 -0.8320 0.6830 -0.8225Q0.7100 -0.8130 0.7100 -0.8060Q0.7100 -0.8020 0.7020 -0.7970L0.6980 -0.7950Q0.6840 -0.7860 0.6840 -0.7690V-0.6620Q0.6840 -0.6520 0.6895 -0.6465Q0.6950 -0.6410 0.7050 -0.6410H0.7710Q0.7860 -0.6410 0.7970 -0.6540ZM0.0960 -0.8160Q0.1000 -0.8180 0.1030 -0.8180L0.1160 -0.8160Q0.2040 -0.7970 0.2455 -0.7570Q0.2870 -0.7170 0.2870 -0.6750Q0.2870 -0.6470 0.2700 -0.6275Q0.2530 -0.6080 0.2280 -0.6080Q0.2120 -0.6080 0.1950 -0.6170Q0.1880 -0.6200 0.1850 -0.6255Q0.1820 -0.6310 0.1790 -0.6400Q0.1710 -0.6800 0.1510 -0.7210Q0.1310 -0.7620 0.1050 -0.7960Q0.0930 -0.8130 0.0960 -0.8160ZM0.4210 -0.5330 0.4300 -0.5310 0.4890 -0.5080Q0.5530 -0.4910 0.5530 -0.4800Q0.5530 -0.4770 0.5420 -0.4710L0.5390 -0.4700Q0.5250 -0.4640 0.5190 -0.4490Q0.4500 -0.2590 0.3200 -0.1590Q0.3110 -0.1510 0.3030 -0.1510Q0.2980 -0.1510 0.2980 -0.1560Q0.2980 -0.1630 0.3040 -0.1730Q0.3420 -0.2400 0.3700 -0.3240Q0.3830 -0.3640 0.3930 -0.4175Q0.4030 -0.4710 0.4050 -0.5150Q0.4060 -0.5230 0.4100 -0.5280Q0.4140 -0.5330 0.4210 -0.5330ZM0.7210 -0.5210Q0.7220 -0.5220 0.7250 -0.5220Q0.7300 -0.5220 0.7410 -0.5160Q0.8420 -0.4580 0.8895 -0.3880Q0.9370 -0.3180 0.9370 -0.2570Q0.9370 -0.2200 0.9210 -0.1970Q0.9050 -0.1740 0.8800 -0.1740Q0.8610 -0.1740 0.8410 -0.1880Q0.8300 -0.1970 0.8290 -0.2120Q0.8220 -0.2800 0.7935 -0.3560Q0.7650 -0.4320 0.7260 -0.5000Q0.7160 -0.5180 0.7210 -0.5210ZM0.1680 -0.4260 0.1840 -0.4500Q0.1880 -0.4560 0.1955 -0.4665Q0.2030 -0.4770 0.2075 -0.4820Q0.2120 -0.4870 0.2160 -0.4870Q0.2240 -0.4870 0.2625 -0.4560Q0.3010 -0.4250 0.3200 -0.4040Q0.3250 -0.3970 0.3250 -0.3930Q0.3250 -0.3850 0.3160 -0.3800L0.2990 -0.3740Q0.2800 -0.3680 0.2800 -0.3510V-0.1360Q0.2800 -0.1210 0.2910 -0.1100Q0.3220 -0.0800 0.3580 -0.0655Q0.3940 -0.0510 0.4455 -0.0465Q0.4970 -0.0420 0.5870 -0.0420Q0.8250 -0.0420 0.9390 -0.0450H0.9440Q0.9600 -0.0450 0.9600 -0.0400Q0.9600 -0.0360 0.9430 -0.0280Q0.9000 -0.0080 0.8890 0.0450Q0.8840 0.0650 0.8660 0.0650H0.5890Q0.4990 0.0650 0.4435 0.0530Q0.3880 0.0410 0.3500 0.0105Q0.3120 -0.0200 0.2810 -0.0800Q0.2750 -0.0920 0.2660 -0.0920Q0.2590 -0.0920 0.2530 -0.0840Q0.1950 -0.0090 0.1350 0.0530Q0.1250 0.0640 0.1250 0.0670V0.0700Q0.1240 0.0790 0.1150 0.0790Q0.1100 0.0790 0.1050 0.0755Q0.1000 0.0720 0.0980 0.0660L0.0570 -0.0220Q0.0540 -0.0280 0.0540 -0.0320Q0.0540 -0.0450 0.0690 -0.0490Q0.0840 -0.0540 0.1310 -0.0730L0.1590 -0.0840Q0.1750 -0.0910 0.1750 -0.1090V-0.3630Q0.1750 -0.3730 0.1695 -0.3785Q0.1640 -0.3840 0.1540 -0.3840H0.1340Q0.1050 -0.3820 0.0850 -0.3760Q0.0820 -0.3750 0.0770 -0.3750Q0.0640 -0.3750 0.0580 -0.3880L0.0550 -0.3930Q0.0520 -0.3990 0.0520 -0.4040Q0.0520 -0.4100 0.0570 -0.4135Q0.0620 -0.4170 0.0720 -0.4160L0.1220 -0.4130H0.1430Q0.1590 -0.4130 0.1680 -0.4260Z" fill="currentColor"/><path transform="translate(42.082,192.660) scale(83.8354)" d="M0.2700 -0.5690V-0.1830Q0.2720 -0.0750 0.2770 0.0380V0.0440Q0.2770 0.0550 0.2680 0.0630Q0.2550 0.0730 0.2325 0.0810Q0.2100 0.0890 0.1880 0.0890Q0.1730 0.0890 0.1645 0.0830Q0.1560 0.0770 0.1560 0.0690Q0.1600 0.0100 0.1630 -0.0455Q0.1660 -0.1010 0.1670 -0.1910V-0.6490Q0.1670 -0.7500 0.1580 -0.8290V-0.8330Q0.1580 -0.8420 0.1640 -0.8465Q0.1700 -0.8510 0.1810 -0.8480Q0.2450 -0.8330 0.2695 -0.8235Q0.2940 -0.8140 0.2940 -0.8070Q0.2940 -0.8030 0.2870 -0.7980L0.2830 -0.7950Q0.2700 -0.7850 0.2700 -0.7700V-0.6970Q0.2700 -0.6890 0.2725 -0.6845Q0.2750 -0.6800 0.2810 -0.6780L0.2910 -0.6730Q0.3340 -0.6460 0.3535 -0.6150Q0.3730 -0.5840 0.3730 -0.5560Q0.3730 -0.5330 0.3610 -0.5175Q0.3490 -0.5020 0.3320 -0.5020Q0.3220 -0.5020 0.3090 -0.5100Q0.2990 -0.5170 0.2970 -0.5360Q0.2970 -0.5670 0.2890 -0.6020Q0.2880 -0.6060 0.2835 -0.6005Q0.2790 -0.5950 0.2745 -0.5855Q0.2700 -0.5760 0.2700 -0.5690ZM0.7950 -0.6340 0.8050 -0.6480Q0.8090 -0.6530 0.8135 -0.6590Q0.8180 -0.6650 0.8230 -0.6700Q0.8280 -0.6750 0.8320 -0.6750Q0.8390 -0.6750 0.8685 -0.6515Q0.8980 -0.6280 0.9130 -0.6100Q0.9170 -0.6040 0.9170 -0.5990Q0.9170 -0.5920 0.9090 -0.5870L0.9080 -0.5860Q0.9010 -0.5830 0.8955 -0.5770Q0.8900 -0.5710 0.8900 -0.5630V-0.5190L0.8920 -0.4700Q0.8920 -0.4510 0.8940 -0.4150V-0.4100Q0.8940 -0.3960 0.8840 -0.3900Q0.8700 -0.3820 0.8485 -0.3760Q0.8270 -0.3700 0.8100 -0.3700Q0.8030 -0.3700 0.7985 -0.3750Q0.7940 -0.3800 0.7940 -0.3880Q0.7940 -0.4050 0.7730 -0.4050H0.4920Q0.4820 -0.4050 0.4765 -0.3995Q0.4710 -0.3940 0.4710 -0.3840V-0.3770Q0.4710 -0.3730 0.4585 -0.3660Q0.4460 -0.3590 0.4275 -0.3535Q0.4090 -0.3480 0.3910 -0.3480Q0.3810 -0.3480 0.3765 -0.3540Q0.3720 -0.3600 0.3720 -0.3680Q0.3750 -0.3970 0.3760 -0.4250L0.3770 -0.4520V-0.5050Q0.3770 -0.5770 0.3710 -0.6380V-0.6420Q0.3710 -0.6570 0.3840 -0.6570Q0.3900 -0.6570 0.3940 -0.6550L0.4640 -0.6260Q0.4750 -0.6210 0.4890 -0.6210H0.5520Q0.5620 -0.6210 0.5675 -0.6265Q0.5730 -0.6320 0.5730 -0.6420V-0.6830Q0.5730 -0.6930 0.5675 -0.6985Q0.5620 -0.7040 0.5520 -0.7040H0.4960Q0.4380 -0.7030 0.3740 -0.6930H0.3680Q0.3540 -0.6930 0.3480 -0.7060L0.3440 -0.7140Q0.3410 -0.7200 0.3410 -0.7250Q0.3410 -0.7320 0.3460 -0.7355Q0.3510 -0.7390 0.3600 -0.7380Q0.3960 -0.7350 0.4640 -0.7330H0.5520Q0.5730 -0.7330 0.5730 -0.7540Q0.5710 -0.8040 0.5690 -0.8240V-0.8260Q0.5690 -0.8370 0.5755 -0.8415Q0.5820 -0.8460 0.5930 -0.8430Q0.7000 -0.8180 0.7000 -0.8040Q0.7000 -0.8010 0.6940 -0.7960L0.6930 -0.7950Q0.6790 -0.7850 0.6790 -0.7700V-0.7540Q0.6790 -0.7440 0.6845 -0.7385Q0.6900 -0.7330 0.7000 -0.7330H0.7620Q0.7780 -0.7330 0.7870 -0.7460L0.8050 -0.7700Q0.8090 -0.7760 0.8170 -0.7865Q0.8250 -0.7970 0.8300 -0.8020Q0.8350 -0.8070 0.8390 -0.8070Q0.8470 -0.8070 0.8835 -0.7785Q0.9200 -0.7500 0.9340 -0.7310Q0.9400 -0.7250 0.9400 -0.7190Q0.9400 -0.7140 0.9340 -0.7090Q0.9260 -0.7040 0.9150 -0.7040H0.7000Q0.6900 -0.7040 0.6845 -0.6985Q0.6790 -0.6930 0.6790 -0.6830V-0.6420Q0.6790 -0.6320 0.6845 -0.6265Q0.6900 -0.6210 0.7000 -0.6210H0.7690Q0.7860 -0.6210 0.7950 -0.6340ZM0.1130 -0.6590Q0.1210 -0.6590 0.1270 -0.6420Q0.1480 -0.5760 0.1480 -0.5160Q0.1480 -0.4560 0.1280 -0.4210Q0.1200 -0.4090 0.1070 -0.4020Q0.0940 -0.3950 0.0810 -0.3950Q0.0590 -0.3950 0.0470 -0.4130Q0.0400 -0.4240 0.0400 -0.4380Q0.0400 -0.4590 0.0550 -0.4770Q0.0570 -0.4800 0.0620 -0.4850Q0.0670 -0.4900 0.0710 -0.4970Q0.0850 -0.5220 0.0955 -0.5605Q0.1060 -0.5990 0.1060 -0.6360V-0.6480Q0.1060 -0.6590 0.1130 -0.6590ZM0.5050 -0.5920H0.4920Q0.4820 -0.5920 0.4765 -0.5865Q0.4710 -0.5810 0.4710 -0.5710V-0.4550Q0.4710 -0.4450 0.4765 -0.4395Q0.4820 -0.4340 0.4920 -0.4340H0.5050Q0.5150 -0.4340 0.5205 -0.4395Q0.5260 -0.4450 0.5260 -0.4550V-0.5710Q0.5260 -0.5810 0.5205 -0.5865Q0.5150 -0.5920 0.5050 -0.5920ZM0.6570 -0.4550V-0.5710Q0.6570 -0.5810 0.6515 -0.5865Q0.6460 -0.5920 0.6360 -0.5920H0.6240Q0.6140 -0.5920 0.6085 -0.5865Q0.6030 -0.5810 0.6030 -0.5710V-0.4550Q0.6030 -0.4450 0.6085 -0.4395Q0.6140 -0.4340 0.6240 -0.4340H0.6360Q0.6460 -0.4340 0.6515 -0.4395Q0.6570 -0.4450 0.6570 -0.4550ZM0.7940 -0.4550V-0.5710Q0.7940 -0.5810 0.7885 -0.5865Q0.7830 -0.5920 0.7730 -0.5920H0.7560Q0.7460 -0.5920 0.7405 -0.5865Q0.7350 -0.5810 0.7350 -0.5710V-0.4550Q0.7350 -0.4450 0.7405 -0.4395Q0.7460 -0.4340 0.7560 -0.4340H0.7730Q0.7830 -0.4340 0.7885 -0.4395Q0.7940 -0.4450 0.7940 -0.4550ZM0.8060 -0.3080 0.8220 -0.3300Q0.8270 -0.3360 0.8345 -0.3460Q0.8420 -0.3560 0.8465 -0.3610Q0.8510 -0.3660 0.8550 -0.3660Q0.8630 -0.3660 0.8970 -0.3385Q0.9310 -0.3110 0.9460 -0.2930Q0.9510 -0.2860 0.9510 -0.2810Q0.9510 -0.2760 0.9460 -0.2710Q0.9380 -0.2660 0.9260 -0.2660H0.8710Q0.8630 -0.2660 0.8585 -0.2630Q0.8540 -0.2600 0.8540 -0.2550Q0.8540 -0.2470 0.8640 -0.2380Q0.9180 -0.1910 0.9180 -0.1800Q0.9180 -0.1750 0.9070 -0.1750H0.9000Q0.8830 -0.1750 0.8730 -0.1710Q0.8320 -0.1540 0.7850 -0.1410Q0.7700 -0.1380 0.7700 -0.1270Q0.7700 -0.1210 0.7780 -0.1140Q0.8470 -0.0610 0.9400 -0.0360Q0.9580 -0.0320 0.9580 -0.0270Q0.9580 -0.0240 0.9535 -0.0210Q0.9490 -0.0180 0.9420 -0.0150Q0.9000 0.0060 0.8840 0.0580Q0.8800 0.0730 0.8680 0.0730Q0.8630 0.0730 0.8570 0.0700Q0.7780 0.0250 0.7280 -0.0450Q0.7220 -0.0560 0.7110 -0.0560Q0.7050 -0.0560 0.7000 -0.0520Q0.5980 0.0030 0.4770 0.0590Q0.4630 0.0640 0.4600 0.0710L0.4570 0.0770Q0.4520 0.0830 0.4460 0.0830Q0.4360 0.0830 0.4290 0.0700L0.3930 -0.0020Q0.3900 -0.0080 0.3900 -0.0130Q0.3900 -0.0270 0.4060 -0.0280L0.4430 -0.0330Q0.4620 -0.0360 0.4620 -0.0560V-0.1070Q0.4620 -0.1160 0.4580 -0.1210Q0.4540 -0.1260 0.4470 -0.1260Q0.4440 -0.1260 0.4380 -0.1240Q0.3740 -0.0970 0.3100 -0.0800L0.2970 -0.0780Q0.2900 -0.0780 0.2890 -0.0820V-0.0840Q0.2890 -0.0900 0.3040 -0.0990Q0.3570 -0.1250 0.4045 -0.1620Q0.4520 -0.1990 0.4890 -0.2400Q0.4950 -0.2480 0.4950 -0.2540Q0.4950 -0.2660 0.4770 -0.2660H0.4460Q0.4040 -0.2650 0.3480 -0.2560Q0.3460 -0.2550 0.3410 -0.2550Q0.3280 -0.2550 0.3220 -0.2690L0.3180 -0.2760Q0.3150 -0.2820 0.3150 -0.2870Q0.3150 -0.3020 0.3350 -0.3000Q0.3690 -0.2970 0.4380 -0.2950H0.5530Q0.5740 -0.2950 0.5740 -0.3160L0.5710 -0.3730V-0.3770Q0.5710 -0.3840 0.5755 -0.3880Q0.5800 -0.3920 0.5870 -0.3920Q0.5930 -0.3920 0.5960 -0.3910Q0.6680 -0.3740 0.6845 -0.3645Q0.7010 -0.3550 0.6910 -0.3480Q0.6790 -0.3410 0.6790 -0.3240V-0.3160Q0.6790 -0.3060 0.6845 -0.3005Q0.6900 -0.2950 0.7000 -0.2950H0.7810Q0.7970 -0.2950 0.8060 -0.3080ZM0.8070 -0.2530Q0.8070 -0.2590 0.8020 -0.2625Q0.7970 -0.2660 0.7890 -0.2660H0.6840Q0.6650 -0.2660 0.6650 -0.2520Q0.6650 -0.2470 0.6680 -0.2410Q0.6890 -0.2020 0.7190 -0.1690Q0.7270 -0.1600 0.7340 -0.1600Q0.7410 -0.1600 0.7460 -0.1670Q0.7740 -0.2000 0.8020 -0.2400Q0.8070 -0.2480 0.8070 -0.2530ZM0.5600 -0.1720V-0.0740Q0.5600 -0.0630 0.5660 -0.0580Q0.5720 -0.0530 0.5820 -0.0540L0.6830 -0.0710Q0.6990 -0.0740 0.6990 -0.0870Q0.6990 -0.0920 0.6960 -0.0980Q0.6680 -0.1530 0.6480 -0.2260Q0.6450 -0.2410 0.6350 -0.2410Q0.6290 -0.2410 0.6220 -0.2340Q0.6030 -0.2170 0.5740 -0.1970Q0.5600 -0.1890 0.5600 -0.1720Z" fill="currentColor"/></svg>